<?xml version="1.0" encoding="UTF-8"?>
<svg id="Layer_2" data-name="Layer 2" xmlns="http://www.w3.org/2000/svg" viewBox="0 0 195.5 195.5">
  <defs>
    <style>
      .cls-1 {
        fill: #fff;
      }

      .cls-2 {
        fill: none;
      }
    </style>
  </defs>
  <g id="Layer_1-2" data-name="Layer 1">
    <g>
      <g>
        <path class="cls-1" d="M180.83,106.34v7.28c-.49,5.49-1.27,11.05-2.86,16.39-.5,1.69-1.05,3.45-1.82,5.04h-11.13c1.45-3.85,2.91-7.66,3.81-11.69,2.89-12.92,1.41-26.37-3.81-38.46h11.13c1.33,2.84,2.23,6.09,2.91,9.15.87,3.92,1.57,8.32,1.77,12.28Z"/>
        <path class="cls-1" d="M158.68,74.29c-9.08-12.53-23.02-21.4-38.33-24.08-42.84-7.5-79.3,30.43-70.03,72.98,4.2,19.27,18.32,36.01,36.71,43.08l-3,.42c-13.48-1.08-26.06-9.14-34.98-18.92l-16.84,9.12,14.25-13.66c.1-.39-1.58-3.39-1.88-4.08-3.43-7.85-5.69-16.28-6.01-24.9l-33.56-4.28,33.37-1.35c.12-11.35,3.28-22.39,8.32-32.46l-25.58-12.7,28.36,8.3c5.87-8.88,13.45-16.62,22.5-22.24L45.18,4l31.38,42.78c6.11-2.96,12.5-5.43,19.2-6.74,3.64-.71,7.32-1,11.01-1.37l2.86-30.36,2.79,30.37c7.74.47,15.26,1.9,22.5,4.64,2.71,1.03,5.25,2.38,7.92,3.47l19.69-27.96-15.12,30.58c8.98,6.05,17.36,13.82,22.9,23.22.3.5.75,1.04.75,1.65h-12.37Z"/>
        <polygon class="cls-1" points="159.2 145.88 145.58 159.61 131.44 159.61 131.23 159.2 144.54 145.88 159.2 145.88"/>
        <path class="cls-1" d="M99.05,173.61c3.31-.31,10.46-.44,13.68-.07.31.04.53.02.72.33l-11.23,11.44c-.65.3-1.79-.05-2.53-.16-1.4-.21-13.48-3.1-13.48-3.99l6.65-6.66c2.05-.04,4.2-.7,6.19-.88Z"/>
        <path class="cls-1" d="M131.33,173.56l-.31.63-11.34,11.34c-4.95.59-10.02.82-14.97.21l12.17-12.18h14.45Z"/>
        <path class="cls-1" d="M172.31,145.67c-1.9,5.02-4.97,9.49-7.9,13.94h-15.39l.31-.63,13.31-13.32h9.67Z"/>
        <path class="cls-1" d="M162.53,161.69c-2.76,3.69-6.23,6.75-9.67,9.78h-15.91l9.67-9.78h15.91Z"/>
        <polygon class="cls-1" points="143.4 161.69 133.73 171.48 119.06 171.48 128.74 161.69 143.4 161.69"/>
        <path class="cls-1" d="M149.64,173.56c.12.48-.09.34-.26.48-4.79,3.76-12.88,7.38-18.71,9.15-2.22.67-4.77,1.41-7.02,1.51l11.13-11.14h14.87Z"/>
        <path class="cls-1" d="M123.22,159.61c3.19-4.05,6.13-8.39,7.8-13.32.14-.17,3.15-.4,3.74-.42,1.82-.08,4.25-.12,6.04,0,.31.02.6-.16.52.31l-13.41,13.43h-4.68Z"/>
        <path class="cls-1" d="M89.53,174.6l-5.29,5.42c-.18.17-.38.21-.62.2-.62-.04-4.81-2.39-5.67-2.88-1.62-.93-3.77-2.17-5.21-3.31-.17-.13-.38,0-.26-.48,2.81.16,5.85-.22,8.63,0,1.63.13,3.51.66,5.21.83,1.06.11,2.17-.08,3.22.21Z"/>
        <path class="cls-1" d="M125.72,161.69l-9.67,9.78h-9.46l4.92-2.46c3.47-2.02,6.79-4.37,9.53-7.32h4.68Z"/>
        <path class="cls-1" d="M69.25,171.48c-.18-.05-2.54-2.15-2.92-2.49-1.6-1.45-3.94-3.69-5.3-5.31-.2-.23-.5-.34-.41-.73l7.09,5.29,6.22,3.24h-4.68Z"/>
      </g>
      <rect class="cls-2" x="0" width="195.5" height="195.5" rx="35.4" ry="35.4"/>
    </g>
  </g>
</svg>