<?xml version="1.0" encoding="UTF-8"?>
<svg id="Layer_2" data-name="Layer 2" xmlns="http://www.w3.org/2000/svg" viewBox="0 0 437.66 228.91">
  <defs>
    <style>
      .cls-1 {
        fill: #fff;
      }

      .cls-2 {
        fill: none;
      }
    </style>
  </defs>
  <g id="Layer_1-2" data-name="Layer 1">
    <g>
      <g>
        <path class="cls-1" d="M175.83,102.34v7.28c-.49,5.49-1.27,11.05-2.86,16.39-.5,1.69-1.05,3.45-1.82,5.04h-11.13c1.45-3.85,2.91-7.66,3.81-11.69,2.89-12.92,1.41-26.37-3.81-38.46h11.13c1.33,2.84,2.23,6.09,2.91,9.15.87,3.92,1.57,8.32,1.77,12.28Z"/>
        <path class="cls-1" d="M153.68,70.29c-9.08-12.53-23.02-21.4-38.33-24.08-42.84-7.5-79.3,30.43-70.03,72.98,4.2,19.27,18.32,36.01,36.71,43.08l-3,.42c-13.48-1.08-26.06-9.14-34.98-18.92l-16.84,9.12,14.25-13.66c.1-.39-1.58-3.39-1.88-4.08-3.43-7.85-5.69-16.28-6.01-24.9L0,105.98l33.37-1.35c.12-11.35,3.28-22.39,8.32-32.46l-25.58-12.7,28.36,8.3c5.87-8.88,13.45-16.62,22.5-22.24L40.18,0l31.38,42.78c6.11-2.96,12.5-5.43,19.2-6.74,3.64-.71,7.32-1,11.01-1.37l2.86-30.36,2.79,30.37c7.74.47,15.26,1.9,22.5,4.64,2.71,1.03,5.25,2.38,7.92,3.47l19.69-27.96-15.12,30.58c8.98,6.05,17.36,13.82,22.9,23.22.3.5.75,1.04.75,1.65h-12.37Z"/>
        <polygon class="cls-1" points="154.2 141.88 140.58 155.61 126.44 155.61 126.23 155.2 139.54 141.88 154.2 141.88"/>
        <path class="cls-1" d="M94.05,169.61c3.31-.31,10.46-.44,13.68-.07.31.04.53.02.72.33l-11.23,11.44c-.65.3-1.79-.05-2.53-.16-1.4-.21-13.48-3.1-13.48-3.99l6.65-6.66c2.05-.04,4.2-.7,6.19-.88Z"/>
        <path class="cls-1" d="M126.33,169.56l-.31.63-11.34,11.34c-4.95.59-10.02.82-14.97.21l12.17-12.18h14.45Z"/>
        <path class="cls-1" d="M167.31,141.67c-1.9,5.02-4.97,9.49-7.9,13.94h-15.39l.31-.63,13.31-13.32h9.67Z"/>
        <path class="cls-1" d="M157.53,157.69c-2.76,3.69-6.23,6.75-9.67,9.78h-15.91l9.67-9.78h15.91Z"/>
        <polygon class="cls-1" points="138.4 157.69 128.73 167.48 114.06 167.48 123.74 157.69 138.4 157.69"/>
        <path class="cls-1" d="M144.64,169.56c.12.48-.09.34-.26.48-4.79,3.76-12.88,7.38-18.71,9.15-2.22.67-4.77,1.41-7.02,1.51l11.13-11.14h14.87Z"/>
        <path class="cls-1" d="M118.22,155.61c3.19-4.05,6.13-8.39,7.8-13.32.14-.17,3.15-.4,3.74-.42,1.82-.08,4.25-.12,6.04,0,.31.02.6-.16.52.31l-13.41,13.43h-4.68Z"/>
        <path class="cls-1" d="M84.53,170.6l-5.29,5.42c-.18.17-.38.21-.62.2-.62-.04-4.81-2.39-5.67-2.88-1.62-.93-3.77-2.17-5.21-3.31-.17-.13-.38,0-.26-.48,2.81.16,5.85-.22,8.63,0,1.63.13,3.51.66,5.21.83,1.06.11,2.17-.08,3.22.21Z"/>
        <path class="cls-1" d="M120.72,157.69l-9.67,9.78h-9.46l4.92-2.46c3.47-2.02,6.79-4.37,9.53-7.32h4.68Z"/>
        <path class="cls-1" d="M64.25,167.48c-.18-.05-2.54-2.15-2.92-2.49-1.6-1.45-3.94-3.69-5.3-5.31-.2-.23-.5-.34-.41-.73l7.09,5.29,6.22,3.24h-4.68Z"/>
      </g>
      <g>
        <path class="cls-1" d="M85.47,124.01l7.17-7.24c3.11,3.3,6.54,5.08,11.05,5.08,3.81,0,5.97-1.4,5.97-3.68,0-7.49-21.08-4.13-21.08-19.81,0-8.57,6.6-13.71,16.38-13.71,6.48,0,12.25,2.35,15.81,6.22l-7.24,7.17c-2.73-2.73-5.33-4.06-8.7-4.06-3.11,0-5.02,1.08-5.02,3.17,0,6.98,21.02,3.68,21.02,19.87,0,8.95-6.67,14.1-17.97,14.1-7.62,0-12.83-2.22-17.4-7.11Z"/>
        <path class="cls-1" d="M123.69,114.8c0-9.21,7.36-16.19,17.33-16.19s17.33,6.92,17.33,16.19-7.37,16.32-17.27,16.32-17.4-6.98-17.4-16.32ZM147.12,114.86c0-3.81-2.48-6.35-6.1-6.35s-6.1,2.6-6.1,6.41,2.48,6.35,6.1,6.35,6.1-2.6,6.1-6.41Z"/>
        <path class="cls-1" d="M180.81,114.93c0-9.4,6.22-16.19,14.86-16.19,3.17,0,5.97,1.02,8,2.79v-2.16h10.86v31.05h-10.86v-2.1c-2.03,1.71-4.83,2.73-8,2.73-8.63,0-14.86-6.79-14.86-16.13ZM204.11,114.86c0-3.68-2.48-6.29-6.03-6.29s-6.09,2.67-6.09,6.29,2.54,6.35,6.03,6.35,6.1-2.6,6.1-6.35Z"/>
        <path class="cls-1" d="M220.99,99.37h11.05v1.97c2.09-1.71,4.63-2.6,7.87-2.6,2.92,0,5.08.76,6.6,2.35l-6.41,8.57c-.76-.76-1.9-1.27-3.49-1.27-2.92,0-4.57,1.71-4.57,5.14v16.89h-11.05v-31.05Z"/>
        <path class="cls-1" d="M250.51,85.4h8.19l15.3,23.17,15.3-23.17h8.19v45.02h-11.24v-22.98l-8.57,12.83h-7.37l-8.51-12.89v23.05h-11.3v-45.02Z"/>
        <path class="cls-1" d="M302.82,114.93c0-9.4,6.22-16.19,14.86-16.19,3.17,0,5.97,1.02,8,2.79v-2.16h10.86v31.05h-10.86v-2.1c-2.03,1.71-4.83,2.73-8,2.73-8.63,0-14.86-6.79-14.86-16.13ZM326.12,114.86c0-3.68-2.48-6.29-6.03-6.29s-6.1,2.67-6.1,6.29,2.54,6.35,6.03,6.35,6.09-2.6,6.09-6.35Z"/>
        <path class="cls-1" d="M347.26,108.58h-6.86v-9.21h6.86v-12.83h11.05v12.83h6.86v9.21h-6.86v21.84h-11.05v-21.84Z"/>
        <path class="cls-1" d="M366.43,114.93c0-9.4,7.62-16.32,17.59-16.32,4.83,0,8.83,1.65,12.06,4.83l-6.98,6.98c-1.27-1.27-2.86-1.9-5.08-1.9-3.62,0-6.35,2.54-6.35,6.35s2.79,6.41,6.35,6.41c2.41,0,4.06-.83,5.27-2.22l7.05,6.98c-3.49,3.43-7.37,5.08-12.44,5.08-9.91,0-17.46-6.86-17.46-16.19Z"/>
        <path class="cls-1" d="M400.33,84.13h11.05v17.08c2.03-1.59,4.76-2.48,7.87-2.48,7.43,0,12.25,4.83,12.25,11.62v20.06h-11.05v-17.52c0-2.86-1.91-4.63-4.51-4.63s-4.57,1.78-4.57,4.63v17.52h-11.05v-46.29Z"/>
      </g>
      <g>
        <path class="cls-1" d="M173.34,141.62h5.8v1.6h-3.94v1.89h3.75v1.6h-3.75v3.28h-1.86v-8.37Z"/>
        <path class="cls-1" d="M180.92,141.62h3.41c1.66,0,2.8,1.02,2.8,2.47,0,1.27-.83,2.16-2.13,2.4l2.68,3.51h-2.21l-2.49-3.45h-.2v3.45h-1.86v-8.37ZM182.78,143.06v2.1h1.33c.75,0,1.16-.4,1.16-1.06,0-.6-.41-1.04-1.15-1.04h-1.34Z"/>
        <path class="cls-1" d="M188.61,145.79c0-2.44,1.9-4.32,4.4-4.32s4.4,1.87,4.4,4.33-1.9,4.33-4.37,4.33-4.42-1.9-4.42-4.34ZM195.5,145.79c0-1.56-1.01-2.62-2.49-2.62s-2.49,1.04-2.49,2.62,1,2.64,2.49,2.64,2.49-1.07,2.49-2.64Z"/>
        <path class="cls-1" d="M199.18,141.62h1.33l2.95,4.61,2.95-4.61h1.34v8.37h-1.86v-4.64l-1.81,2.83h-1.23l-1.81-2.83v4.64h-1.85v-8.37Z"/>
        <path class="cls-1" d="M212.78,141.62h1.86v3.77l3.09-3.77h2.3l-3.39,3.98,3.51,4.39h-2.31l-3.2-4.11v4.11h-1.86v-8.37Z"/>
        <path class="cls-1" d="M221.52,141.62h5.95v1.6h-4.09v1.72h3.73v1.55h-3.73v1.89h4.15v1.61h-6.01v-8.37Z"/>
        <path class="cls-1" d="M229.4,141.62h1.3l3.97,5.09v-5.09h1.86v8.37h-1.36l-3.91-5.02v5.02h-1.86v-8.37Z"/>
        <path class="cls-1" d="M241.08,146.5l-3-4.88h2.16l1.78,3.06,1.79-3.06h2.11l-2.98,4.8v3.57h-1.86v-3.49Z"/>
        <path class="cls-1" d="M249.01,141.62h1.68l3.28,8.37h-1.97l-.56-1.52h-3.27l-.56,1.52h-1.93l3.32-8.37ZM250.91,146.95l-1.08-2.99-1.09,2.99h2.17Z"/>
        <path class="cls-1" d="M254.84,143.6c-.39-.09-.72-.47-.72-.98,0-.6.47-1.11,1.09-1.11s1.09.49,1.09,1.11c0,.25-.07.57-.36,1.09l-.96,1.75-.88-.47.74-1.39Z"/>
        <path class="cls-1" d="M257.09,148.75l1.21-1.2c.53.63,1.16.97,2.04.97.78,0,1.25-.31,1.25-.81,0-1.58-3.92-.83-3.92-3.77,0-1.54,1.21-2.47,2.94-2.47,1.17,0,2.18.45,2.81,1.15l-1.21,1.2c-.5-.52-1-.77-1.64-.77s-1.05.25-1.05.71c0,1.46,3.92.73,3.92,3.78,0,1.6-1.2,2.56-3.21,2.56-1.38,0-2.31-.44-3.13-1.36Z"/>
        <path class="cls-1" d="M267.43,148.75l1.21-1.2c.53.63,1.16.97,2.04.97.78,0,1.25-.31,1.25-.81,0-1.58-3.92-.83-3.92-3.77,0-1.54,1.21-2.47,2.94-2.47,1.17,0,2.18.45,2.81,1.15l-1.21,1.2c-.5-.52-1-.77-1.64-.77s-1.05.25-1.05.71c0,1.46,3.92.73,3.92,3.78,0,1.6-1.2,2.56-3.21,2.56-1.38,0-2.31-.44-3.13-1.36Z"/>
        <path class="cls-1" d="M275.56,146.69v-5.07h1.87v5.18c0,1.01.7,1.62,1.62,1.62s1.6-.62,1.6-1.61v-5.19h1.87v5.09c0,1.98-1.41,3.41-3.47,3.41s-3.5-1.45-3.5-3.43Z"/>
        <path class="cls-1" d="M284.6,141.62h1.3l3.97,5.09v-5.09h1.86v8.37h-1.36l-3.91-5.02v5.02h-1.86v-8.37Z"/>
        <path class="cls-1" d="M294.51,150.03c-.39-.09-.72-.49-.72-.98,0-.62.46-1.13,1.09-1.13.59,0,1.09.5,1.09,1.13,0,.25-.07.56-.36,1.09l-.96,1.75-.88-.49.73-1.38Z"/>
        <path class="cls-1" d="M300.73,141.62h5.8v1.6h-3.94v1.89h3.75v1.6h-3.75v3.28h-1.86v-8.37Z"/>
        <path class="cls-1" d="M307.79,145.79c0-2.44,1.9-4.32,4.4-4.32s4.4,1.87,4.4,4.33-1.9,4.33-4.38,4.33-4.42-1.9-4.42-4.34ZM314.68,145.79c0-1.56-1.01-2.62-2.49-2.62s-2.49,1.04-2.49,2.62,1,2.64,2.49,2.64,2.49-1.07,2.49-2.64Z"/>
        <path class="cls-1" d="M318.36,141.62h3.41c1.66,0,2.8,1.02,2.8,2.47,0,1.27-.83,2.16-2.13,2.4l2.68,3.51h-2.21l-2.49-3.45h-.2v3.45h-1.86v-8.37ZM320.22,143.06v2.1h1.33c.75,0,1.16-.4,1.16-1.06,0-.6-.42-1.04-1.15-1.04h-1.34Z"/>
        <path class="cls-1" d="M329.52,141.62h1.86v3.77l3.09-3.77h2.3l-3.39,3.98,3.51,4.39h-2.31l-3.2-4.11v4.11h-1.86v-8.37Z"/>
        <path class="cls-1" d="M338.26,141.62h5.95v1.6h-4.09v1.72h3.73v1.55h-3.73v1.89h4.15v1.61h-6.01v-8.37Z"/>
        <path class="cls-1" d="M346.14,141.62h1.3l3.97,5.09v-5.09h1.86v8.37h-1.36l-3.91-5.02v5.02h-1.86v-8.37Z"/>
        <path class="cls-1" d="M357.82,146.5l-3-4.88h2.16l1.78,3.06,1.79-3.06h2.11l-2.98,4.8v3.57h-1.86v-3.49Z"/>
        <path class="cls-1" d="M365.75,141.62h1.68l3.28,8.37h-1.97l-.56-1.52h-3.27l-.56,1.52h-1.93l3.32-8.37ZM367.65,146.95l-1.08-2.99-1.09,2.99h2.17Z"/>
        <path class="cls-1" d="M371.58,143.6c-.39-.09-.72-.47-.72-.98,0-.6.47-1.11,1.09-1.11s1.09.49,1.09,1.11c0,.25-.07.57-.36,1.09l-.96,1.75-.88-.47.74-1.39Z"/>
        <path class="cls-1" d="M373.83,148.75l1.21-1.2c.53.63,1.16.97,2.04.97.78,0,1.25-.31,1.25-.81,0-1.58-3.92-.83-3.92-3.77,0-1.54,1.21-2.47,2.94-2.47,1.17,0,2.18.45,2.81,1.15l-1.21,1.2c-.5-.52-1-.77-1.64-.77s-1.05.25-1.05.71c0,1.46,3.92.73,3.92,3.78,0,1.6-1.2,2.56-3.21,2.56-1.38,0-2.31-.44-3.13-1.36Z"/>
        <path class="cls-1" d="M384.79,141.62h5.8v1.6h-3.94v1.89h3.75v1.6h-3.75v3.28h-1.86v-8.37Z"/>
        <path class="cls-1" d="M392.24,146.69v-5.07h1.87v5.18c0,1.01.7,1.62,1.62,1.62s1.6-.62,1.6-1.61v-5.19h1.87v5.09c0,1.98-1.41,3.41-3.47,3.41s-3.5-1.45-3.5-3.43Z"/>
        <path class="cls-1" d="M403.29,143.24h-2.62v-1.62h7.1v1.62h-2.62v6.75h-1.86v-6.75Z"/>
        <path class="cls-1" d="M409.22,146.69v-5.07h1.87v5.18c0,1.01.7,1.62,1.62,1.62s1.6-.62,1.6-1.61v-5.19h1.87v5.09c0,1.98-1.41,3.41-3.47,3.41s-3.5-1.45-3.5-3.43Z"/>
        <path class="cls-1" d="M418.27,141.62h3.41c1.66,0,2.8,1.02,2.8,2.47,0,1.27-.83,2.16-2.13,2.4l2.68,3.51h-2.21l-2.49-3.45h-.2v3.45h-1.86v-8.37ZM420.13,143.06v2.1h1.33c.75,0,1.16-.4,1.16-1.06,0-.6-.42-1.04-1.15-1.04h-1.34Z"/>
        <path class="cls-1" d="M426.42,141.62h5.95v1.6h-4.09v1.72h3.73v1.55h-3.73v1.89h4.15v1.61h-6.01v-8.37Z"/>
      </g>
      <rect class="cls-2" width="437.66" height="228.91"/>
    </g>
  </g>
</svg>